<svg width="1024" height="1024" viewBox="0 0 1024 1024" fill="none" xmlns="http://www.w3.org/2000/svg">
<path d="M0 212.448C0 95.1163 95.1163 0 212.448 0H811.552C928.884 0 1024 95.1163 1024 212.448V811.552C1024 928.884 928.884 1024 811.552 1024H212.448C95.1163 1024 0 928.884 0 811.552V212.448Z" fill="#F9F9F9"/>
<path fill-rule="evenodd" clip-rule="evenodd" d="M456.083 296.926C394.116 230.275 288.277 224.731 219.686 284.543C151.095 344.355 145.725 446.873 207.692 513.523L371.011 689.187C377.24 697.112 384.318 704.589 392.239 711.496C424.27 739.427 464.423 753.106 504.438 752.965C544.453 753.106 584.606 739.427 616.637 711.496C624.558 704.589 631.636 697.112 637.864 689.187L801.184 513.523C863.151 446.873 857.781 344.355 789.19 284.543C720.599 224.731 614.76 230.275 552.793 296.926L504.438 348.936L456.083 296.926Z" fill="#FF1818"/>
<path fill-rule="evenodd" clip-rule="evenodd" d="M219.738 284.6C288.324 224.783 394.154 230.327 456.116 296.982L628.648 482.585C690.609 549.241 685.239 651.767 616.652 711.585C548.066 771.402 442.236 765.859 380.274 699.203L207.742 513.6C145.781 446.945 151.151 344.418 219.738 284.6Z" fill="#0070FF"/>
<path fill-rule="evenodd" clip-rule="evenodd" d="M602.461 345.301C629.895 369.228 632.043 410.239 607.259 436.901L520.961 529.737C496.176 556.399 453.844 558.616 426.41 534.689C398.975 510.762 396.827 469.752 421.612 443.089L507.909 350.254C532.694 323.592 575.026 321.374 602.461 345.301Z" fill="#FF1818"/>
</svg>
