<svg width="1024" height="1024" viewBox="0 0 1024 1024" fill="none" xmlns="http://www.w3.org/2000/svg">
<path d="M0 512C0 229.23 229.23 0 512 0V0C794.77 0 1024 229.23 1024 512V512C1024 794.77 794.77 1024 512 1024V1024C229.23 1024 0 794.77 0 512V512Z" fill="#F9F9F9"/>
<path fill-rule="evenodd" clip-rule="evenodd" d="M456.087 296.933C394.12 230.282 288.282 224.738 219.69 284.55C151.099 344.362 145.729 446.88 207.696 513.531L371.016 689.194C377.244 697.119 384.322 704.596 392.243 711.503C424.274 739.434 464.427 753.113 504.442 752.972C544.457 753.113 584.611 739.434 616.641 711.503C624.562 704.596 631.64 697.119 637.869 689.194L801.188 513.531C863.155 446.88 857.785 344.362 789.194 284.55C720.603 224.738 614.765 230.282 552.798 296.933L504.442 348.943L456.087 296.933Z" fill="#FF1818"/>
<path fill-rule="evenodd" clip-rule="evenodd" d="M219.739 284.605C288.326 224.788 394.156 230.331 456.117 296.987L628.649 482.59C690.611 549.245 685.24 651.772 616.654 711.589C548.067 771.407 442.237 765.863 380.276 699.208L207.744 513.605C145.782 446.949 151.153 344.422 219.739 284.605Z" fill="#0070FF"/>
<path fill-rule="evenodd" clip-rule="evenodd" d="M602.464 345.322C629.899 369.249 632.047 410.26 607.262 436.922L520.964 529.757C496.18 556.42 453.848 558.637 426.413 534.71C398.979 510.783 396.831 469.772 421.615 443.11L507.913 350.275C532.697 323.612 575.029 321.395 602.464 345.322Z" fill="#FF1818"/>
</svg>
